<svg width="196" height="96" viewBox="0 0 196 96" fill="none" xmlns="http://www.w3.org/2000/svg">
<path d="M54.8478 3.22633L6.4527 47.5885L54.8478 91.9506" stroke="white" stroke-width="6"/>
<path d="M141.152 91.9506L189.547 47.5885L141.152 3.22633" stroke="white" stroke-width="6"/>
<path d="M114.667 72.5927H109.374L100.079 41.7786C99.5753 40.2872 99.0711 38.5333 98.567 36.5168C98.0629 34.4794 97.7903 33.2507 97.7483 32.8305C97.2652 35.6452 96.5296 38.6909 95.5423 41.9676L86.5312 72.5927H81.2384L68.9819 26.5291H74.6532L81.9312 54.9801C82.9185 58.9081 83.6541 62.5208 84.1364 65.8186C84.6833 62.0587 85.523 58.2988 86.6578 54.539L94.9124 26.5291H100.583L109.248 54.7911C110.256 58.0258 111.107 61.7017 111.8 65.8186C112.199 62.8569 112.956 59.2231 114.069 54.9171L121.315 26.5291H126.987L114.667 72.5927Z" fill="white"/>
</svg>
