<svg width="134" height="134" viewBox="0 0 134 134" fill="none" xmlns="http://www.w3.org/2000/svg">
<path d="M88.4806 81.722L80.8521 27.3689L105.175 30.9591L128.173 35.0142L117.754 94.1027L112.718 122.662L40.8272 109.986L44.5598 88.8172L86.7276 83.987L88.7657 83.7536L88.4806 81.722Z" stroke="white" stroke-width="4"/>
<rect x="46.7907" y="87.6825" width="69" height="21" transform="rotate(10 46.7907 87.6825)" fill="white"/>
<path d="M55.3782 102.327C60.9385 96.707 82.8957 113.272 102.659 110.664" stroke="black" stroke-width="2"/>
<path d="M6.25888 21.4185L78.5485 11.2589L86.8988 70.6749L90.9349 99.3927L18.6453 109.552L14.6093 80.8346L6.25888 21.4185Z" stroke="white" stroke-width="4"/>
<rect x="17.4249" y="86.4978" width="69" height="21" transform="rotate(-8 17.4249 86.4978)" fill="white"/>
<path d="M30.1174 97.7717C33.669 90.7087 59.6702 99.6774 77.6606 91.09" stroke="black" stroke-width="2"/>
</svg>
