<svg width="134" height="134" viewBox="0 0 134 134" fill="none" xmlns="http://www.w3.org/2000/svg">
<path d="M84.5 37H102V104H32V37H51.5H52.5H53.5H54.5H81.5H82.5H83.5H84.5Z" stroke="white" stroke-width="4"/>
<path d="M62.6719 81H53.9375V79.1719H57.2344V65.25C57.0469 65.6771 56.75 66.1354 56.3438 66.625C55.9375 67.1042 55.4583 67.5469 54.9062 67.9531C54.3542 68.349 53.7448 68.6823 53.0781 68.9531C52.4219 69.224 51.7396 69.3594 51.0312 69.3594V67.1406C51.6667 67.1406 52.349 66.9427 53.0781 66.5469C53.8073 66.151 54.4792 65.6458 55.0938 65.0312C55.7083 64.4167 56.2188 63.7188 56.625 62.9375C57.0312 62.1562 57.2344 61.3802 57.2344 60.6094H59.3906V79.1719H62.6719V81ZM82.875 62.5C81.5938 63.8854 80.5677 65.25 79.7969 66.5938C79.026 67.9375 78.4323 69.3438 78.0156 70.8125C77.599 72.2708 77.3177 73.8333 77.1719 75.5C77.026 77.1562 76.9427 78.9896 76.9219 81H74.6719C74.6927 79.1042 74.7917 77.3177 74.9688 75.6406C75.1562 73.9635 75.4792 72.3646 75.9375 70.8438C76.3958 69.3125 77.0208 67.8542 77.8125 66.4688C78.6042 65.0833 79.6042 63.7396 80.8125 62.4375H71.0938V66.4375H69.2656V60.6094H82.875V62.5Z" fill="white"/>
</svg>
