<svg width="134" height="134" viewBox="0 0 134 134" fill="none" xmlns="http://www.w3.org/2000/svg">
<path d="M104.275 58.9474L97.3153 56.5019C96.8421 54.9852 96.2673 53.5057 95.5954 52.0748L98.9951 45.2021C99.3652 44.4116 99.4909 43.5187 99.3546 42.6489C99.2183 41.7792 98.8268 40.9763 98.2352 40.3533L92.4356 34.3661C91.8587 33.7215 91.1037 33.2849 90.278 33.1184C89.4523 32.9519 88.5978 33.0639 87.8359 33.4385L81.3164 36.8959C79.959 36.1875 78.5556 35.5816 77.1167 35.0828L74.9969 27.8729C74.7186 27.0002 74.177 26.2475 73.4547 25.7297C72.7325 25.212 71.8694 24.9577 70.9972 25.0057H62.9977C62.1592 25.0035 61.3412 25.279 60.6594 25.7935C59.9776 26.308 59.4663 27.0354 59.198 27.8729L56.8782 35.2093C55.4393 35.7081 54.0359 36.314 52.6785 37.0224L46.159 33.4385C45.4091 33.0483 44.562 32.9158 43.737 33.0595C42.9119 33.2032 42.1503 33.6159 41.5593 34.2396L35.8797 40.3533C35.2683 40.9615 34.8541 41.7573 34.6962 42.6277C34.5382 43.4982 34.6444 44.3989 34.9998 45.2021L38.2795 52.0748C37.6076 53.5057 37.0328 54.9852 36.5597 56.5019L29.6002 58.9474C28.8282 59.2514 28.1641 59.7994 27.6987 60.5163C27.2334 61.2333 26.9895 62.0843 27.0003 62.953V71.3857C26.9982 72.2696 27.2596 73.1319 27.7477 73.8507C28.2357 74.5695 28.9257 75.1084 29.7202 75.3912L36.6796 77.8367C37.1528 79.3535 37.7276 80.833 38.3995 82.2639L34.9998 89.1366C34.6297 89.9271 34.504 90.82 34.6403 91.6898C34.7766 92.5595 35.1681 93.3624 35.7597 93.9854L41.4393 99.9726C42.0248 100.645 42.8014 101.099 43.6524 101.266C44.5035 101.433 45.383 101.305 46.159 100.9L52.6785 97.4428C54.0359 98.1512 55.4393 98.757 56.8782 99.2558L59.198 106.592C59.4864 107.406 60.0062 108.106 60.6863 108.597C61.3664 109.087 62.1737 109.344 62.9977 109.333H70.9972C71.8357 109.335 72.6537 109.06 73.3355 108.545C74.0174 108.031 74.5286 107.303 74.7969 106.466L77.1167 99.1294C78.5556 98.6306 79.959 98.0247 81.3164 97.3163L87.8359 100.774C88.5858 101.164 89.4329 101.296 90.2579 101.153C91.083 101.009 91.8446 100.596 92.4356 99.9726L98.1152 93.9854C98.7267 93.3772 99.1408 92.5814 99.2987 91.7109C99.4567 90.8405 99.3505 89.9397 98.9951 89.1366L95.7154 82.2639C96.3873 80.833 96.9621 79.3535 97.4353 77.8367L104.275 75.6021C105.103 75.3087 105.817 74.7377 106.308 73.9764C106.799 73.215 107.04 72.3051 106.995 71.3857V62.953C106.997 62.069 106.735 61.2068 106.247 60.488C105.759 59.7692 105.069 59.2303 104.275 58.9474ZM66.9975 84.0348C63.8332 84.0348 60.74 83.0456 58.109 81.1924C55.478 79.3392 53.4274 76.7052 52.2164 73.6235C51.0055 70.5417 50.6887 67.1506 51.306 63.8791C51.9233 60.6075 53.4471 57.6023 55.6846 55.2437C57.922 52.885 60.7728 51.2787 63.8762 50.628C66.9797 49.9772 70.1965 50.3112 73.1199 51.5877C76.0434 52.8642 78.542 55.0259 80.3 57.7994C82.058 60.5729 82.9963 63.8337 82.9963 67.1693C82.9963 71.6423 81.3107 75.9321 78.3103 79.095C75.31 82.2579 71.2406 84.0348 66.9975 84.0348Z" fill="white"/>
</svg>
